<svg width="1000" height="1000" viewBox="0 0 1000 1000" fill="none" xmlns="http://www.w3.org/2000/svg">
<rect width="1000" height="1000" fill="#B33E55"/>
<path fill-rule="evenodd" clip-rule="evenodd" d="M336.492 216.278V241.203C336.492 246.208 332.714 250.457 327.77 251.241C158.462 266.49 142.197 338.224 141.056 510.947C140.853 541.721 141.056 563.524 145.165 577.564C151.853 600.423 176.118 605.455 189.118 593.03C270.303 515.442 399.006 384.681 522.951 480.591C525.035 482.204 527.605 483.188 530.253 483.331C582.77 486.17 688.893 498.714 704.651 568.084C707 580 707 581.615 691.844 581.125C627.357 577.025 534.735 593.03 471.242 662.265C410.5 728.5 417.885 860.34 501.686 869C800.5 899.88 860.812 833.004 858.872 564.047C860.374 333.493 841.294 269.114 675.691 251.255C670.747 250.471 666.948 246.219 666.948 241.213V216.278C666.948 155.143 620.46 130 563.113 130H440.327C382.98 130 336.492 155.143 336.492 216.278ZM563.113 176.962H440.327C410.785 176.962 386.836 184.784 386.836 216.278V233.536C386.836 239.41 391.844 244.033 397.704 243.623C435.358 240.987 451.935 239.822 501.686 239.822C551.466 239.822 568.065 240.989 605.736 243.627C611.596 244.038 616.604 239.415 616.604 233.541V216.278C616.604 184.784 592.655 176.962 563.113 176.962Z" fill="white"/>
<path d="M443.451 511.721C429.331 511.721 417.885 521.482 417.885 533.524C417.885 545.566 429.331 555.328 443.451 555.328C457.57 555.328 469.016 545.566 469.016 533.524C469.016 521.482 457.57 511.721 443.451 511.721Z" fill="white"/>
</svg>
