<svg width="227" height="236" viewBox="0 0 227 236" fill="none" xmlns="http://www.w3.org/2000/svg">
<path fill-rule="evenodd" clip-rule="evenodd" d="M56.281 32V45.0118C6.38129 52.1719 0.346102 73.4448 0 122.826C0.0778886 126.185 0.203216 139.526 0.224708 142.685C0.0472582 148.155 7.01949 150.923 12.1454 147.471C36.3116 124.333 79.8053 91.0746 116.848 119.739C117.469 120.219 118.236 120.513 119.025 120.555C134.681 121.402 163.336 128.122 168.034 148.803C168.537 151.008 166.515 152.837 164.216 152.69C144.992 151.468 113.823 154.038 98.4518 176.879C83.6423 198.886 87.8715 233.032 113.49 235.002C199.71 241.633 227.531 215.854 226.953 138.656C227.408 77.8914 225.638 52.9009 170.719 45.0146V32C170.719 13.7746 156.86 0 139.764 0H87.2355C70.1398 0 56.281 13.7746 56.281 32ZM139.764 15H87.2355C78.4286 15 71.2893 22.6112 71.2893 32V43.3756C83.2533 42.4183 97.2104 42 113.49 42C129.778 42 143.742 42.4188 155.711 43.3772V32C155.711 22.6112 148.571 15 139.764 15Z" fill="#B33E55"/>
<path d="M90.1668 132C85.9577 132 82.5454 134.91 82.5454 138.5C82.5454 142.09 85.9577 145 90.1668 145C94.376 145 97.7882 142.09 97.7882 138.5C97.7882 134.91 94.376 132 90.1668 132Z" fill="#B33E55"/>
</svg>
